<svg height="512pt" viewBox="0 0 512.001 512" width="512pt" xmlns="http://www.w3.org/2000/svg"><path d="m220.894531 52.777344c-2.929687 2.929687-2.929687 7.679687 0 10.605468 2.929688 2.929688 7.675781 2.929688 10.605469 0 6.535156-6.535156 15.222656-10.132812 24.464844-10.132812 9.242187 0 17.933594 3.597656 24.46875 10.132812 2.925781 2.929688 7.675781 2.929688 10.601562 0 2.929688-2.925781 2.929688-7.675781 0-10.605468-9.363281-9.367188-21.820312-14.527344-35.070312-14.527344-13.246094 0-25.703125 5.160156-35.070313 14.527344zm0 0"/><path d="m204.453125 36.335938c13.757813-13.761719 32.054687-21.335938 51.511719-21.335938 19.460937 0 37.753906 7.578125 51.515625 21.335938 2.925781 2.929687 7.675781 2.929687 10.605469 0 2.925781-2.929688 2.925781-7.675782 0-10.605469-16.59375-16.59375-38.65625-25.730469-62.121094-25.730469s-45.523438 9.136719-62.117188 25.730469c-2.929687 2.929687-2.929687 7.675781 0 10.605469 2.929688 2.929687 7.675782 2.929687 10.605469 0zm0 0"/><path d="m206.652344 242.085938c4.140625 0 7.5-3.359376 7.5-7.5v-16.476563c0-4.140625-3.359375-7.5-7.5-7.5s-7.5 3.359375-7.5 7.5v16.476563c0 4.140624 3.359375 7.5 7.5 7.5zm0 0"/><path d="m255.964844 242.085938c4.140625 0 7.5-3.359376 7.5-7.5v-16.476563c0-4.140625-3.359375-7.5-7.5-7.5s-7.5 3.359375-7.5 7.5v16.476563c0 4.140624 3.359375 7.5 7.5 7.5zm0 0"/><path d="m305.277344 242.085938c4.140625 0 7.5-3.359376 7.5-7.5v-16.476563c0-4.140625-3.359375-7.5-7.5-7.5s-7.5 3.359375-7.5 7.5v16.476563c0 4.140624 3.359375 7.5 7.5 7.5zm0 0"/><path d="m199.152344 302.984375c0 4.140625 3.359375 7.5 7.5 7.5s7.5-3.359375 7.5-7.5v-16.476563c0-4.140624-3.359375-7.5-7.5-7.5s-7.5 3.359376-7.5 7.5zm0 0"/><path d="m248.464844 302.984375c0 4.140625 3.359375 7.5 7.5 7.5s7.5-3.359375 7.5-7.5v-16.476563c0-4.140624-3.359375-7.5-7.5-7.5s-7.5 3.359376-7.5 7.5zm0 0"/><path d="m297.777344 302.984375c0 4.140625 3.359375 7.5 7.5 7.5s7.5-3.359375 7.5-7.5v-16.476563c0-4.140624-3.359375-7.5-7.5-7.5s-7.5 3.359376-7.5 7.5zm0 0"/><path d="m199.152344 371.378906c0 4.140625 3.359375 7.5 7.5 7.5s7.5-3.359375 7.5-7.5v-16.476562c0-4.140625-3.359375-7.5-7.5-7.5s-7.5 3.359375-7.5 7.5zm0 0"/><path d="m248.464844 371.378906c0 4.140625 3.359375 7.5 7.5 7.5s7.5-3.359375 7.5-7.5v-16.476562c0-4.140625-3.359375-7.5-7.5-7.5s-7.5 3.359375-7.5 7.5zm0 0"/><path d="m297.777344 371.378906c0 4.140625 3.359375 7.5 7.5 7.5s7.5-3.359375 7.5-7.5v-16.476562c0-4.140625-3.359375-7.5-7.5-7.5s-7.5 3.359375-7.5 7.5zm0 0"/><path d="m101.222656 333.566406c4.140625 0 7.5-3.355468 7.5-7.5v-16.476562c0-4.140625-3.359375-7.5-7.5-7.5s-7.5 3.359375-7.5 7.5v16.476562c0 4.144532 3.359375 7.5 7.5 7.5zm0 0"/><path d="m140.847656 333.566406c4.144532 0 7.5-3.355468 7.5-7.5v-16.476562c0-4.140625-3.355468-7.5-7.5-7.5-4.140625 0-7.496094 3.359375-7.496094 7.5v16.476562c0 4.144532 3.355469 7.5 7.496094 7.5zm0 0"/><path d="m101.222656 395.355469c4.140625 0 7.5-3.359375 7.5-7.5v-16.476563c0-4.140625-3.359375-7.5-7.5-7.5s-7.5 3.359375-7.5 7.5v16.476563c0 4.140625 3.359375 7.5 7.5 7.5zm0 0"/><path d="m140.847656 395.355469c4.144532 0 7.5-3.359375 7.5-7.5v-16.476563c0-4.140625-3.355468-7.5-7.5-7.5-4.140625 0-7.496094 3.359375-7.496094 7.5v16.476563c0 4.140625 3.355469 7.5 7.496094 7.5zm0 0"/><path d="m410.777344 333.566406c4.140625 0 7.5-3.355468 7.5-7.5v-16.476562c0-4.140625-3.359375-7.5-7.5-7.5s-7.5 3.359375-7.5 7.5v16.476562c0 4.144532 3.359375 7.5 7.5 7.5zm0 0"/><path d="m378.652344 309.589844c0-4.140625-3.359375-7.496094-7.5-7.496094s-7.5 3.355469-7.5 7.496094v16.480468c0 4.140626 3.359375 7.496094 7.5 7.496094s7.5-3.355468 7.5-7.496094zm0 0"/><path d="m403.277344 387.855469c0 4.140625 3.359375 7.5 7.5 7.5s7.5-3.359375 7.5-7.5v-16.476563c0-4.140625-3.359375-7.5-7.5-7.5s-7.5 3.359375-7.5 7.5zm0 0"/><path d="m371.152344 363.878906c-4.140625 0-7.5 3.359375-7.5 7.5v16.476563c0 4.140625 3.359375 7.5 7.5 7.5s7.5-3.359375 7.5-7.5v-16.476563c0-4.140625-3.359375-7.5-7.5-7.5zm0 0"/><path d="m468.21875 394.050781c3.097656 8.75 11.453125 15.035157 21.25 15.035157 12.421875 0 22.53125-10.105469 22.53125-22.53125 0-12.425782-10.109375-22.535157-22.53125-22.535157-9.796875 0-18.152344 6.285157-21.25 15.035157h-18.996094v-26.996094h40.003906c4.144532 0 7.5-3.355469 7.5-7.496094v-17.960938c8.875-3.027343 15.273438-11.445312 15.273438-21.332031 0-12.421875-10.109375-22.53125-22.53125-22.53125-12.425781 0-22.535156 10.105469-22.535156 22.53125 0 9.707031 6.171875 18 14.792968 21.164063v10.628906h-32.503906v-69.171875c0-4.140625-3.355468-7.496094-7.5-7.496094h-38.136718c-4.140626 0-7.5 3.355469-7.5 7.496094 0 4.144531 3.359374 7.5 7.5 7.5h30.640624v221.542969h-15.949218v-69.667969c0-4.144531-3.359375-7.5-7.5-7.5h-39.625c-4.140625 0-7.5 3.355469-7.5 7.5v69.667969h-15.949219v-221.542969h30.640625c4.140625 0 7.5-3.355469 7.5-7.5 0-4.140625-3.359375-7.496094-7.5-7.496094h-30.710938v-66.050781c0-1.375-.375-2.71875-1.085937-3.890625l-36.277344-59.789063c-1.359375-2.238281-3.789062-3.605468-6.410156-3.605468h-40.394531v-19.453125c7.113281-2.953125 12.132812-9.972657 12.132812-18.144531 0-10.824219-8.808594-19.628907-19.632812-19.628907-10.824219 0-19.628906 8.804688-19.628906 19.628907 0 8.171874 5.015624 15.191406 12.128906 18.140624v19.457032h-40.394532c-2.621093 0-5.050781 1.367187-6.410156 3.605468l-15.082031 24.859376c-2.148437 3.542968-1.019531 8.152343 2.519531 10.300781 3.542969 2.148437 8.152344 1.019531 10.300782-2.519531l12.894531-21.25h87.347656l32.996094 54.386718v300.492188h-21.339844v-77.929688c0-4.140625-3.355469-7.5-7.5-7.5h-95.660156c-4.140625 0-7.5 3.359375-7.5 7.5v77.929688h-21.339844v-300.492188l6.625-10.917968c2.144531-3.542969 1.019531-8.152344-2.523437-10.300782-3.539063-2.148437-8.152344-1.019531-10.300782 2.519532l-7.710937 12.710937c-.710938 1.171875-1.089844 2.515625-1.089844 3.890625v66.050781h-94.019531c-4.144532 0-7.5 3.355469-7.5 7.496094v69.171875h-32.503906v-10.628906c8.621093-3.164063 14.792968-11.457032 14.792968-21.164063 0-12.421875-10.109375-22.53125-22.535156-22.53125s-22.53125 10.109375-22.53125 22.53125c0 9.886719 6.398438 18.308594 15.273438 21.335938v17.957031c0 4.140625 3.359374 7.5 7.5 7.5h40.003906v26.992188h-18.996094c-3.09375-8.75-11.453125-15.035157-21.25-15.035157-12.421875 0-22.53125 10.109375-22.53125 22.535157 0 12.421874 10.109375 22.53125 22.53125 22.53125 9.796875 0 18.152344-6.285157 21.25-15.035157h18.996094v26.214844h-40.003906c-4.140626 0-7.5 3.355469-7.5 7.496094v17.957031c-8.875 3.03125-15.273438 11.449219-15.273438 21.335938 0 12.421874 10.109375 22.53125 22.53125 22.53125 12.425781 0 22.535156-10.105469 22.535156-22.53125 0-9.707032-6.167968-18-14.792968-21.164063v-10.628906h32.503906v69.167969c0 4.144531 3.359375 7.5 7.5 7.5h269.859375.035156.03125 101.519531c4.144532 0 7.5-3.355469 7.5-7.5v-69.167969h32.503906v10.628906c-8.621093 3.164063-14.792968 11.457031-14.792968 21.164063 0 12.421874 10.109375 22.53125 22.535156 22.53125s22.53125-10.105469 22.53125-22.53125c0-9.886719-6.398438-18.308594-15.273438-21.335938v-17.957031c0-4.140625-3.355468-7.496094-7.5-7.496094h-40.003906v-26.214844zm21.25-15.03125c4.152344 0 7.535156 3.378907 7.535156 7.535157 0 4.152343-3.382812 7.535156-7.535156 7.535156-4.15625 0-7.535156-3.382813-7.535156-7.535156 0-4.15625 3.378906-7.535157 7.535156-7.535157zm0-81.28125c4.152344 0 7.535156 3.378907 7.535156 7.53125 0 4.15625-3.382812 7.535157-7.535156 7.535157-4.15625 0-7.535156-3.378907-7.535156-7.535157 0-4.152343 3.378906-7.53125 7.535156-7.53125zm-233.503906-212.90625c2.554687 0 4.632812 2.078125 4.632812 4.632813 0 2.554687-2.078125 4.632812-4.632812 4.632812-2.554688 0-4.628906-2.078125-4.628906-4.632812 0-2.554688 2.074218-4.632813 4.628906-4.632813zm-233.433594 212.90625c4.15625 0 7.535156 3.378907 7.535156 7.53125 0 4.15625-3.378906 7.535157-7.535156 7.535157-4.152344 0-7.535156-3.378907-7.535156-7.535157 0-4.152343 3.382812-7.53125 7.535156-7.53125zm0 96.351563c-4.152344 0-7.535156-3.382813-7.535156-7.535156 0-4.15625 3.382812-7.535157 7.535156-7.535157 4.15625 0 7.535156 3.378907 7.535156 7.535157 0 4.152343-3.378906 7.535156-7.535156 7.535156zm0 80.5c-4.152344 0-7.535156-3.378906-7.535156-7.535156s3.382812-7.535157 7.535156-7.535157c4.15625 0 7.535156 3.378907 7.535156 7.535157s-3.378906 7.535156-7.535156 7.535156zm55.242188-199.199219h86.523437v221.542969h-15.949219v-69.667969c0-4.144531-3.355468-7.5-7.5-7.5h-39.625c-4.140625 0-7.5 3.355469-7.5 7.5v69.667969h-15.949218zm30.949218 221.542969v-62.167969h24.625v62.167969zm106.910156 0v-70.429688h80.664063v70.429688zm163.019532 0v-62.167969h24.625v62.167969zm110.816406-22.34375c-4.15625 0-7.535156-3.378906-7.535156-7.535156s3.378906-7.535157 7.535156-7.535157c4.152344 0 7.535156 3.378907 7.535156 7.535157s-3.382812 7.535156-7.535156 7.535156zm0 0"/></svg>