<?xml version="1.0" encoding="UTF-8" standalone="no"?>
<svg
   xmlns:dc="http://purl.org/dc/elements/1.1/"
   xmlns:cc="http://creativecommons.org/ns#"
   xmlns:rdf="http://www.w3.org/1999/02/22-rdf-syntax-ns#"
   xmlns:svg="http://www.w3.org/2000/svg"
   xmlns="http://www.w3.org/2000/svg"
   xmlns:sodipodi="http://sodipodi.sourceforge.net/DTD/sodipodi-0.dtd"
   xmlns:inkscape="http://www.inkscape.org/namespaces/inkscape"
   version="1.0"
   width="512.000000pt"
   height="512.000000pt"
   viewBox="0 0 512.000000 512.000000"
   preserveAspectRatio="xMidYMid meet"
   id="svg46"
   sodipodi:docname="energy-class-edit.svg"
   inkscape:version="1.0.1 (3bc2e813f5, 2020-09-07)">
  <metadata
     id="metadata52">
    <rdf:RDF>
      <cc:Work
         rdf:about="">
        <dc:format>image/svg+xml</dc:format>
        <dc:type
           rdf:resource="http://purl.org/dc/dcmitype/StillImage" />
        <dc:title></dc:title>
      </cc:Work>
    </rdf:RDF>
  </metadata>
  <defs
     id="defs50" />
  <sodipodi:namedview
     pagecolor="#ffffff"
     bordercolor="#666666"
     borderopacity="1"
     objecttolerance="10"
     gridtolerance="10"
     guidetolerance="10"
     inkscape:pageopacity="0"
     inkscape:pageshadow="2"
     inkscape:window-width="1366"
     inkscape:window-height="715"
     id="namedview48"
     showgrid="false"
     inkscape:snap-nodes="false"
     inkscape:snap-others="true"
     showguides="true"
     inkscape:guide-bbox="true"
     inkscape:snap-center="false"
     inkscape:snap-text-baseline="false"
     inkscape:snap-page="false"
     inkscape:zoom="0.50141301"
     inkscape:cx="228.94307"
     inkscape:cy="385.29331"
     inkscape:window-x="-8"
     inkscape:window-y="-8"
     inkscape:window-maximized="1"
     inkscape:current-layer="svg46">
    <sodipodi:guide
       position="9.6543643,314.08552"
       orientation="1,0"
       id="guide92" />
    <sodipodi:guide
       position="256.48525,416.54516"
       orientation="1,0"
       id="guide94" />
    <sodipodi:guide
       position="352.06094,224.30476"
       orientation="1,0"
       id="guide96" />
    <sodipodi:guide
       position="448.60951,168.71619"
       orientation="1,0"
       id="guide98" />
    <sodipodi:guide
       position="501.09373,114.82812"
       orientation="0,-1"
       id="guide102" />
    <sodipodi:guide
       position="406.10025,259.29771"
       orientation="0,-1"
       id="guide104" />
    <sodipodi:guide
       position="311.81249,405.78124"
       orientation="0,-1"
       id="guide106" />
  </sodipodi:namedview>
  <path
     style="opacity:1;fill:none;stroke:#000000;stroke-width:15.2426;stroke-linecap:butt;stroke-linejoin:miter;stroke-miterlimit:4;stroke-dasharray:none;stroke-opacity:1"
     d="M 9.7598622,62.413755 255.90467,62.048291 309.90135,121.17537 256.29569,181.79961 9.7473777,181.70154 Z"
     id="path72"
     sodipodi:nodetypes="cccccc" />
  <path
     style="fill:none;stroke:#000000;stroke-width:15.4802;stroke-linecap:butt;stroke-linejoin:miter;stroke-miterlimit:4;stroke-dasharray:none;stroke-opacity:1"
     d="M 9.8958405,221.736 351.8217,222.05122 406.01285,283.86075 351.77344,341.23208 9.1361692,339.27133 Z"
     id="path74"
     sodipodi:nodetypes="cccccc" />
  <path
     style="fill:none;stroke:#000000;stroke-width:15.624;stroke-linecap:butt;stroke-linejoin:miter;stroke-miterlimit:4;stroke-dasharray:none;stroke-opacity:1"
     d="m 9.9171164,385.15311 438.2899036,0.0168 54.35144,62.39188 -54.32002,56.96659 -438.264657,-0.0552 z"
     id="path76"
     sodipodi:nodetypes="cccccc" />
  <path
     d="m 199.96528,91.489609 c -2.78326,1.99947 -24.42244,47.987351 -24.42244,51.795861 0,5.23671 5.29745,8.28353 9.96665,5.71279 0.89762,-0.57129 3.14235,-3.99896 4.84851,-7.61705 l 3.14259,-6.66491 h 13.73779 13.82737 l 2.15479,4.95109 c 3.2324,7.42661 5.83646,10.283 9.24829,10.283 3.32222,0 6.82401,-3.23724 6.82401,-6.37928 0,-3.14201 -22.98584,-51.415018 -25.051,-52.557571 -2.78353,-1.618623 -11.94189,-1.332988 -14.27656,0.47607 z m 7.72194,28.754321 c -3.5018,0.19044 -6.46493,0.0953 -6.73427,-0.19042 -0.17948,-0.19045 1.07749,-3.52292 2.9631,-7.33141 l 3.32233,-6.95054 3.32205,7.04574 3.41187,7.14097 z"
     id="path34-1"
     style="stroke-width:0.0924608" />
  <path
     d="m 286.42506,251.93381 c -4.91578,1.97868 -5.01609,2.54402 -5.01609,29.39747 0,32.31837 -2.10677,29.4917 22.37182,29.86859 21.87023,0.37689 26.88635,-0.0943 32.20342,-3.39202 4.51451,-2.73246 9.12932,-9.9876 9.12932,-14.22764 0,-4.6169 -2.20709,-9.70492 -5.71836,-13.28538 -3.11,-3.39201 -3.41096,-4.05158 -2.80903,-7.4436 0.9029,-4.99379 -0.90289,-10.74137 -4.71515,-14.79295 -5.61803,-5.93602 -7.42382,-6.40713 -26.38471,-6.6898 -9.32996,-0.18845 -17.95766,0.0943 -19.06122,0.56533 z m 33.70825,15.07563 c 2.10676,1.50755 2.20709,2.07289 1.10355,4.24002 -1.20387,2.44978 -1.20387,2.44978 -13.24253,2.44978 h -12.03866 v -3.58045 c 0,-1.97869 0.30097,-3.95735 0.70226,-4.24003 0.30096,-0.37689 5.21674,-0.65955 10.93511,-0.65955 8.5274,0 10.63414,0.28266 12.54027,1.79023 z m 8.72802,22.8961 c 1.90612,1.79023 1.40451,4.33424 -1.20385,5.93602 -1.90612,1.22492 -5.11643,1.41335 -16.75381,1.22492 l -14.44638,-0.28268 -0.30097,-4.05159 -0.30097,-3.95734 h 15.85089 c 11.03545,0 16.35252,0.37689 17.15509,1.13067 z"
     id="path38-8"
     style="stroke-width:0.0972244" />
  <path
     d="m 391.94496,415.41417 c -14.72999,5.08519 -23.33077,19.28485 -20.56267,33.86835 1.9771,10.26599 7.90869,17.7497 17.69564,22.25909 4.84414,2.20666 6.62356,2.4944 16.80601,2.4944 13.04931,0 18.38774,-1.7269 25.01126,-7.96327 4.34974,-4.12562 4.94289,-8.53907 1.48278,-11.70532 -3.0646,-2.68637 -6.62349,-2.39855 -10.8744,0.95942 -4.94285,3.93391 -7.711,4.79736 -15.71843,4.79736 -8.10647,0 -12.35745,-1.53513 -16.01514,-5.6607 -5.83275,-6.71611 -5.53622,-15.54286 0.79086,-21.68323 4.05306,-3.83784 7.41443,-4.60539 18.18999,-4.22163 7.11782,0.38379 8.20526,0.67158 11.9618,3.64587 6.92013,5.37285 13.84023,3.64585 13.84023,-3.54993 0,-4.41343 -5.73373,-9.78626 -13.34588,-12.56858 -6.52461,-2.39865 -23.33062,-2.7825 -29.26205,-0.67183 z"
     id="path42-1"
     style="stroke-width:0.0973903" />
  <path
     style="fill:none;stroke:#000000;stroke-width:10.6194;stroke-linecap:butt;stroke-linejoin:miter;stroke-miterlimit:4;stroke-dasharray:none;stroke-opacity:1"
     d="m 256.41688,106.1019 c 0.0879,9.69169 -0.0234,19.57992 -0.0237,27.88143"
     id="path2012"
     sodipodi:nodetypes="cc" />
  <path
     style="fill:none;stroke:#000000;stroke-width:10.6194;stroke-linecap:butt;stroke-linejoin:miter;stroke-miterlimit:4;stroke-dasharray:none;stroke-opacity:1"
     d="m 242.55632,121.22875 26.53205,0.015"
     id="path2014"
     sodipodi:nodetypes="cc" />
</svg>
