<svg height="512pt" viewBox="0 -13 512 512" width="512pt" xmlns="http://www.w3.org/2000/svg"><path d="m441.300781 342.289062h-25.828125v-109.722656c0-12.132812-9.871094-22.003906-22.007812-22.003906h-117.074219c-12.136719 0-22.011719 9.871094-22.011719 22.003906v109.722656h-125.761718v-40.195312c14.285156-11.40625 23.464843-28.953125 23.464843-48.613281 0-26.046875-16.109375-48.386719-38.882812-57.621094v-123.667969c5-3.777344 9.050781-8.738281 11.746093-14.457031l53.160157.023437h.003906c4.171875 0 7.554687-3.378906 7.554687-7.554687.003907-4.171875-3.378906-7.558594-7.550781-7.558594l-49.527343-.023437c.011718-.4375.03125-.875.03125-1.316406 0-5.324219-1.082032-10.402344-3.039063-15.027344h164.730469c-2.511719 5.007812-4.171875 10.515625-4.78125 16.339844h-71.683594c-4.171875 0-7.558594 3.382812-7.558594 7.558593 0 4.171875 3.386719 7.554688 7.558594 7.554688h71.542969l.25 22.035156h-24.917969c-13.246094 0-24.023438 10.773437-24.023438 24.019531v56.246094c0 13.246094 10.777344 24.019531 24.023438 24.019531s24.019531-10.773437 24.019531-24.019531v-32.226562h97.425781v32.226562c0 13.246094 10.777344 24.019531 24.023438 24.019531s24.023438-10.773437 24.023438-24.019531v-56.246094c0-13.246094-10.777344-24.019531-24.023438-24.019531h-25.914062v-32.253906c0-26.199219-21.3125-47.511719-47.515626-47.511719-11.617187 0-22.269531 4.203125-30.53125 11.164062h-188.078124c-6.640626-5.347656-15.066407-8.554687-24.238282-8.554687-21.339844 0-38.699218 17.359375-38.699218 38.695313 0 12.617187 6.070312 23.839843 15.445312 30.910156v123.636718c-22.789062 9.226563-38.914062 31.574219-38.914062 57.628907 0 19.660156 9.183593 37.210937 23.46875 48.613281v42.949219c-29.53125 8.484375-51.210938 35.71875-51.210938 67.9375v1.332031c0 38.976562 31.714844 70.6875 70.699219 70.6875h370.601562c38.980469 0 70.699219-31.710938 70.699219-70.6875v-1.332031c0-38.980469-31.71875-70.691407-70.699219-70.691407zm-127.539062-116.613281h40.546875v16.847657h-40.546875zm-44.269531 6.890625c0-3.800781 3.097656-6.890625 6.898437-6.890625h22.253906v17.546875c0 7.949219 6.46875 14.414063 14.417969 14.414063h41.941406c7.949219 0 14.414063-6.464844 14.414063-14.414063v-17.546875h24.042969c3.804687 0 6.898437 3.089844 6.898437 6.890625v109.722656h-130.867187zm145.605468-128.78125v56.246094c0 4.910156-3.996094 8.902344-8.910156 8.902344-4.910156 0-8.90625-3.992188-8.90625-8.902344v-39.785156c0-4.171875-3.382812-7.554688-7.558594-7.554688h-112.539062c-4.171875 0-7.554688 3.382813-7.554688 7.554688v39.785156c0 4.910156-3.996094 8.902344-8.910156 8.902344s-8.910156-3.992188-8.910156-8.902344v-56.246094c0-4.910156 3.996094-8.90625 8.910156-8.90625h145.46875c4.914062 0 8.910156 3.996094 8.910156 8.90625zm-49.9375-56.273437v32.253906h-64.40625l-.367187-32.253906c0-9.03125 3.714843-17.207031 9.6875-23.085938.183593-.15625.355469-.320312.519531-.496093 5.796875-5.457032 13.59375-8.816407 22.164062-8.816407 17.867188 0 32.402344 14.535157 32.402344 32.398438zm-275.246094-29.789063c13.007813 0 23.589844 10.578125 23.589844 23.582032 0 13.003906-10.582031 23.582031-23.589844 23.582031-13.007812 0-23.589843-10.578125-23.589843-23.582031 0-13.003907 10.582031-23.582032 23.589843-23.582032zm-8.144531 61.410156c2.628907.566407 5.351563.871094 8.144531.871094 2.804688 0 5.535157-.308594 8.171876-.875v112.746094c-2.679688-.355469-5.402344-.554688-8.171876-.554688-2.761718 0-5.476562.199219-8.144531.550782zm-38.910156 174.347657c0-25.941407 21.109375-47.046875 47.054687-47.046875 25.945313 0 47.054688 21.105468 47.054688 47.046875 0 25.957031-21.109375 47.074219-47.054688 47.074219-25.945312 0-47.054687-21.117188-47.054687-47.074219zm23.464844 57.523437c7.28125 3 15.242187 4.664063 23.589843 4.664063 8.347657 0 16.308594-1.664063 23.589844-4.664063v31.285156h-42.804687c-1.472657 0-2.925781.0625-4.375.152344zm430.5625 103.308594c0 30.640625-24.9375 55.574219-55.585938 55.574219h-370.601562c-30.648438 0-55.585938-24.933594-55.585938-55.574219v-1.332031c0-26.867188 19.164063-49.335938 44.542969-54.46875.289062-.035157.570312-.089844.851562-.152344 3.304688-.617187 6.707032-.953125 10.191407-.953125h370.601562c30.648438 0 55.585938 24.929688 55.585938 55.574219zm0 0"/><path d="m440.621094 368.445312h-168.394532c-4.175781 0-7.558593 3.382813-7.558593 7.554688 0 4.175781 3.382812 7.558594 7.558593 7.558594h168.394532c16.601562 0 30.109375 13.503906 30.109375 30.101562s-13.507813 30.101563-30.109375 30.101563h-369.269532c-16.601562 0-30.109374-13.503907-30.109374-30.101563s13.507812-30.101562 30.109374-30.101562h166.382813c4.175781 0 7.558594-3.382813 7.558594-7.558594 0-4.171875-3.382813-7.554688-7.558594-7.554688h-166.382813c-24.9375 0-45.222656 20.28125-45.222656 45.214844 0 24.929688 20.285156 45.214844 45.222656 45.214844h369.269532c24.933594 0 45.222656-20.285156 45.222656-45.214844 0-24.933594-20.289062-45.214844-45.222656-45.214844zm0 0"/><path d="m153.148438 413.855469c0 12.542969 10.195312 22.746093 22.722656 22.746093 12.539062 0 22.746094-10.203124 22.746094-22.746093 0-12.523438-10.207032-22.714844-22.746094-22.714844-12.527344 0-22.722656 10.191406-22.722656 22.714844zm30.351562 0c0 4.210937-3.421875 7.632812-7.632812 7.632812-4.191407 0-7.601563-3.421875-7.601563-7.632812 0-4.191407 3.410156-7.597657 7.601563-7.597657 4.210937 0 7.632812 3.40625 7.632812 7.597657zm0 0"/><path d="m232.53125 413.660156c0 12.527344 10.191406 22.714844 22.71875 22.714844s22.71875-10.1875 22.71875-22.714844c0-12.542968-10.191406-22.746094-22.71875-22.746094s-22.71875 10.203126-22.71875 22.746094zm22.714844-7.632812c4.195312 0 7.605468 3.425781 7.605468 7.632812 0 4.191406-3.410156 7.601563-7.605468 7.601563-4.191406 0-7.601563-3.410157-7.601563-7.601563 0-4.207031 3.410157-7.632812 7.601563-7.632812zm0 0"/><path d="m357.546875 413.660156c0-12.542968-10.191406-22.746094-22.71875-22.746094s-22.71875 10.203126-22.71875 22.746094c0 12.527344 10.191406 22.714844 22.71875 22.714844s22.71875-10.1875 22.71875-22.714844zm-30.324219 0c0-4.207031 3.414063-7.632812 7.605469-7.632812s7.605469 3.425781 7.605469 7.632812c0 4.191406-3.414063 7.601563-7.605469 7.601563s-7.605469-3.410157-7.605469-7.601563zm0 0"/><path d="m436.925781 413.433594c0-12.527344-10.191406-22.71875-22.714843-22.71875-12.546876 0-22.75 10.191406-22.75 22.71875 0 12.539062 10.203124 22.746094 22.75 22.746094 12.523437 0 22.714843-10.207032 22.714843-22.746094zm-30.351562 0c0-4.195313 3.425781-7.605469 7.636719-7.605469 4.191406 0 7.601562 3.410156 7.601562 7.605469 0 4.207031-3.410156 7.628906-7.601562 7.628906-4.210938 0-7.636719-3.421875-7.636719-7.628906zm0 0"/><path d="m89.914062 282.148438c15.808594 0 28.671876-12.863282 28.671876-28.667969 0-15.808594-12.863282-28.667969-28.671876-28.667969-15.808593 0-28.671874 12.859375-28.671874 28.667969 0 15.804687 12.863281 28.667969 28.671874 28.667969zm0-42.222657c7.472657 0 13.554688 6.082031 13.554688 13.554688 0 7.472656-6.082031 13.550781-13.554688 13.550781-7.476562 0-13.558593-6.078125-13.558593-13.550781 0-7.472657 6.082031-13.554688 13.558593-13.554688zm0 0"/><path d="m73.769531 414.085938c0 12.523437 10.203125 22.714843 22.746094 22.714843 12.527344 0 22.722656-10.191406 22.722656-22.714843 0-12.542969-10.191406-22.746094-22.722656-22.746094-12.542969 0-22.746094 10.203125-22.746094 22.746094zm30.351563 0c0 4.191406-3.410156 7.601562-7.601563 7.601562-4.210937 0-7.632812-3.410156-7.632812-7.601562 0-4.207032 3.421875-7.632813 7.632812-7.632813 4.191407 0 7.601563 3.425781 7.601563 7.632813zm0 0"/></svg>