<?xml version="1.0"?>
<svg xmlns="http://www.w3.org/2000/svg" viewBox="0 0 64 64" width="512" height="512"><g id="Smartphone-Control-Home-Car-Camera" ><path d="M32,21H22a5.006,5.006,0,0,0-5,5v9.08A7.006,7.006,0,0,0,11,42V54a1,1,0,0,0,.03.243l.97,3.88V61a1,1,0,0,0,1,1H25a1,1,0,0,0,1-1V59.3l1.832-2.748A1.006,1.006,0,0,0,28,56V53.79a4.978,4.978,0,0,1,.07-.79H32a5.006,5.006,0,0,0,5-5V26A5.006,5.006,0,0,0,32,21ZM26,53.79V55.7l-1.832,2.748A1.006,1.006,0,0,0,24,59v1H14V58a1,1,0,0,0-.03-.243L13,53.877V42a5.008,5.008,0,0,1,4-4.9V45a1,1,0,0,0,.143.515l2.429,4.048A3.008,3.008,0,0,0,22.1,51.014,3.05,3.05,0,0,0,25.02,48.8l1.153-4.3a1,1,0,1,1,1.931.517l-1.866,6.964A7.009,7.009,0,0,0,26,53.79ZM35,48a3,3,0,0,1-3,3H28.571l1.465-5.468a3,3,0,1,0-5.8-1.553l-1.153,4.3a.988.988,0,0,1-.954.732h-.013a.978.978,0,0,1-.834-.48L19,44.723V26a3,3,0,0,1,3-3H32a3,3,0,0,1,3,3Z"/><rect x="26" y="25" width="6" height="2"/><rect x="22" y="25" width="2" height="2"/><rect x="26" y="38" width="2" height="2"/><path d="M23.465,35.464l1.414,1.414a3.074,3.074,0,0,1,4.242,0l1.414-1.414a5,5,0,0,0-7.07,0Z"/><path d="M20.636,32.636,22.05,34.05a7.011,7.011,0,0,1,9.9,0l1.414-1.414A9.01,9.01,0,0,0,20.636,32.636Z"/><path d="M12.858,16h4.284a3.98,3.98,0,0,0,7.713.01H26.99a1,1,0,0,0,1-1l.01-6a1,1,0,0,0-.4-.8l-7.991-6a1,1,0,0,0-.6-.2l-16-.02h0a1,1,0,0,0-1,1l-.02,12a1,1,0,0,0,1,1H5.139a3.981,3.981,0,0,0,7.719.01ZM21,17a2,2,0,1,1,2-2A2,2,0,0,1,21,17Zm3.861-2.99A3.981,3.981,0,0,0,17.142,14H16V4.006l2.008,0-.01,5a1,1,0,0,0,1,1h7l-.006,4Zm-4.855-9,4,3H20ZM14,4V8H4l.006-4.009ZM5.145,13.99H3.992L4,10H14v4H12.858a3.98,3.98,0,0,0-7.713-.01ZM9,17a2,2,0,1,1,2-2A2,2,0,0,1,9,17Z"/><path d="M51,6a4,4,0,1,0,4,4A4,4,0,0,0,51,6Zm0,6a2,2,0,1,1,2-2A2,2,0,0,1,51,12Z"/><path d="M60,5H57.535l-1.7-2.555A1,1,0,0,0,55,2H47a1,1,0,0,0-.832.445L44.465,5H42a2,2,0,0,0-2,2v9a2,2,0,0,0,2,2H60a2,2,0,0,0,2-2V7A2,2,0,0,0,60,5Zm0,11H42V7h3a1,1,0,0,0,.832-.445L47.535,4h6.93l1.7,2.555A1,1,0,0,0,57,7h3Z"/><path d="M58.9,44.553A1,1,0,0,0,58,44H46a1,1,0,0,0-.9.553l-3,6A1,1,0,0,0,43,52h1v9a1,1,0,0,0,1,1H59a1,1,0,0,0,1-1V52h1a1,1,0,0,0,.9-1.447ZM46.618,46H57.382l2,4H44.618ZM53,60H51V56h2Zm5,0H55V55a1,1,0,0,0-1-1H50a1,1,0,0,0-1,1v5H46V52H58Z"/><path d="M44.707,28.707l7-7-1.414-1.414L43.586,27H39v2h5A1,1,0,0,0,44.707,28.707Z"/><path d="M50.293,41.707l1.414-1.414-7-7A1,1,0,0,0,44,33H39v2h4.586Z"/><path d="M15,32V30H12V21H10V31a1,1,0,0,0,1,1Z"/></g></svg>
